<svg width="32" height="32" xmlns="http://www.w3.org/2000/svg">

 <g>
  <title>background</title>
  <rect fill="none" id="canvas_background" height="34" width="34" y="-1" x="-1"/>
 </g>
 <g>
  <title>Layer 1</title>
  <path stroke="null" fill="#8b0000" id="svg_1" d="m25.615023,15.970616c0,-0.675767 -0.531473,-1.223206 -1.18659,-1.223206l-7.261298,0l0,-7.37837l0,-0.000228c0,-0.678042 -0.54064,-1.227984 -1.20649,-1.227984c-0.666297,0 -1.206937,0.549942 -1.206937,1.227984l0,8.597025c0,0.678269 0.54064,1.228211 1.206937,1.228211l8.468458,0c0.654447,0 1.18592,-0.547667 1.18592,-1.223433m3.623717,-0.007736c0,7.462556 -5.943907,13.512146 -13.275636,13.512146c-7.332175,0 -13.275636,-6.04959 -13.275636,-13.512146s5.94346,-13.512146 13.275636,-13.512146c7.331728,0 13.275636,6.04959 13.275636,13.512146m2.41052,0c0,-8.816137 -7.022951,-15.962881 -15.686156,-15.962881c-8.663652,0 -15.686603,7.146744 -15.686603,15.962881s7.022951,15.962881 15.686603,15.962881c8.663205,0 15.686156,-7.146744 15.686156,-15.962881"/>
 </g>
</svg>