<svg viewBox="0 0 34 34" width="23" height="23" xmlns="http://www.w3.org/2000/svg">

 <g>
  <title>background</title>
  <rect fill="none" id="canvas_background" height="402" width="582" y="-1" x="-1"/>
 </g>
 <g>
  <title>Layer 1</title>
  <path fill="#ae0031" stroke="null" stroke-width="2.5" id="svg_2" d="m15.906808,1.305331c-6.644634,0.049388 -12.013199,5.444649 -12.013199,12.097291c0,3.242229 1.382853,6.379009 3.415753,8.578759l8.600116,8.600116l8.56808,-8.57075c2.048918,-2.19975 3.442449,-5.348543 3.442449,-8.608124c-0.001335,-6.651308 -5.3699,-12.047904 -12.013199,-12.097291zm6.647303,18.855383l-6.644634,6.645969l-6.672665,-6.672665c-1.675174,-1.83268 -2.673604,-4.344774 -2.673604,-6.731396c0,-5.153662 4.189937,-9.378304 9.343599,-9.426357c5.152328,0.048053 9.342264,4.274029 9.343599,9.426357c0,2.403975 -1.007774,4.926746 -2.696296,6.758092z"/>
  <path fill="#ae0031" stroke="null" id="svg_3" d="m16.093192,8.600188c-2.606256,0 -4.719342,2.015724 -4.719342,4.501895c0,2.48617 2.113086,4.501895 4.719342,4.501895s4.719342,-2.015724 4.719342,-4.501895c0,-2.487277 -2.113086,-4.501895 -4.719342,-4.501895zm0,6.788817c-1.322855,0 -2.398544,-1.026126 -2.398544,-2.28803c0,-1.261903 1.07569,-2.28803 2.398544,-2.28803c1.322855,0 2.398544,1.026126 2.398544,2.28803c0,1.261903 -1.07569,2.28803 -2.398544,2.28803z"/>
 </g>
</svg>
