<svg width="32" height="32" xmlns="http://www.w3.org/2000/svg">

 <g>
  <title>background</title>
  <rect fill="none" id="canvas_background" height="34" width="34" y="-1" x="-1"/>
 </g>
 <g>
  <title>Layer 1</title>
  <path stroke="#8b0000" id="svg_2" stroke-width="2.5" stroke-miterlimit="10" fill="none" d="m19.163747,22.111297c0,0 2.449134,-1.402101 3.090303,-1.739018c0.639352,-0.338119 1.30169,-0.423408 1.70393,-0.177827c0.609109,0.372602 5.723916,3.775011 6.154583,4.076244c0.430676,0.301829 0.638151,1.163777 0.045971,2.008181c-0.589747,0.844404 -3.310467,4.183307 -4.463362,4.147613c-1.154702,-0.037501 -5.955588,-0.142748 -15.008727,-9.19831c-9.051332,-9.052543 -9.158395,-13.85463 -9.195291,-15.009332c-0.036896,-1.154106 3.302007,-3.875432 4.146411,-4.465785c0.845615,-0.589757 1.708765,-0.367767 2.008787,0.047182c0.341147,0.472398 3.704247,5.570882 4.074427,6.155189c0.253445,0.399221 0.160292,1.065183 -0.177837,1.705141c-0.336312,0.641169 -1.738403,3.090303 -1.738403,3.090303s0.988363,1.68578 4.330891,5.027711c3.343143,3.342527 5.028317,4.332708 5.028317,4.332708z"/>
  <g transform="matrix(1.4227614251328902,0,0,1.4227614251328902,1135.1517637807303,-614.6559089596121) " id="svg_7">
   <polygon id="svg_8" points="-384.1,265.2 -409.1,265.2 -409.1,268.6 -390.4,268.6 -412,304.6 -412,305.4 -365.6,305.4     -365.6,301.9 -406.2,301.9" fill="#FFFFFF"/>
   <polygon id="svg_9" points="-409.1,257.7 -370.8,257.7 -393,294.4 -365.6,294.4 -365.6,290.9 -386.7,290.9 -365,255 -365,254.2     -409.1,254.2" fill="#FFFFFF"/>
   <path id="svg_10" d="m-388.5,235c-25.1,0 -45.5,20.4 -45.5,45.5s20.4,45.5 45.5,45.5c25.1,0 45.5,-20.4 45.5,-45.5s-20.4,-45.5 -45.5,-45.5zm22.9,70.4l-46.4,0l0,-0.8l21.7,-36l-18.7,0l0,-3.5l25,0l-22.1,36.7l40.7,0l0,3.6l-0.2,0zm0.6,-50.4l-21.7,36l21.1,0l0,3.5l-27.4,0l22.1,-36.7l-38.3,0l0,-3.5l44.1,0l0,0.7l0.1,0z" fill="#B70038"/>
  </g>
 </g>
</svg>