<svg viewBox="0 0 34 34" width="23" height="23" xmlns="http://www.w3.org/2000/svg">

 <g>
  <title>background</title>
  <rect fill="none" id="canvas_background" height="34" width="34" y="-1" x="-1"/>
 </g>
 <g>
  <title>Layer 1</title>
  <rect x="1" y="1" id="svg_1" width="32" height="32" fill="none"/>
  <path fill="#ae0031" id="svg_2" d="m27.994897,11.293684l-10,0l0,2l10,0l0,-2zm0,4l-10,0l0,2l10,0l0,-2zm-4,4l-6,0l0,2l6,0l0,-2zm-10,-8l-10,0l0,10l10,0l0,-10zm-14,-8l0,26l32,0l0,-26l-32,0zm30,24l-28,0l0.08,-20l27.92,0l0,20z"/>
 </g>
</svg>
